<svg xmlns="http://www.w3.org/2000/svg" width="256" height="45"><g fill="none" fill-rule="evenodd"><path fill="#1E1E1E" fill-rule="nonzero" d="M130.833 32.478l1.397-3.866h7.245l1.43 3.866h5.296l-7.603-19.948h-5.328l-7.603 19.948h5.166zm7.083-8.154h-4.094l2.047-5.621 2.047 5.62zm15.223 8.154v-6.205h3.573c4.322 0 7.246-2.437 7.246-6.855 0-4.451-2.924-6.888-7.246-6.888h-8.74v19.948h5.167zm3.021-10.559h-3.021v-5.003h3.021c1.884 0 2.73.975 2.73 2.502 0 1.494-.846 2.501-2.73 2.501zm15.272 10.56v-19.95H166.2v19.95h5.23zM191.354 32.778c4.483 0 8.155-1.917 8.155-6.238 0-3.054-1.657-4.97-5.296-6.108l-3.022-.91c-1.04-.324-1.657-.682-1.657-1.592 0-1.007 1.137-1.43 2.632-1.43 2.274 0 4.256.748 6.043 1.983v-4.809c-1.657-.91-3.574-1.494-6.27-1.494-4.192 0-7.538 2.177-7.538 6.14 0 3.314 1.852 4.971 5.198 5.946l3.022.877c1.072.39 1.69.715 1.69 1.69 0 1.234-1.43 1.592-3.087 1.592-2.242 0-4.679-.91-6.4-2.08v4.809c1.461.877 3.866 1.624 6.53 1.624zm16.86-.325V21.797h2.859v-3.964h-2.86v-4.029h-5.068v4.029h-2.534v3.964h2.534v10.656h5.069zm11.46.325c4.451 0 7.473-3.119 7.473-7.635s-3.022-7.635-7.473-7.635c-4.419 0-7.473 3.12-7.473 7.635 0 4.516 3.054 7.635 7.473 7.635zm0-4.223c-1.56 0-2.437-1.397-2.437-3.412 0-2.014.877-3.444 2.437-3.444 1.592 0 2.47 1.43 2.47 3.444 0 2.015-.878 3.412-2.47 3.412zm14.982 3.898v-8.577c.26-1.04 1.202-1.657 2.6-1.657.811 0 1.494.13 2.111.455v-4.906c-.227-.13-.747-.26-1.397-.26-1.462 0-2.6.65-3.314 1.625v-1.3h-5.1v14.62h5.1zm13.868.325c2.112 0 3.898-.455 5.036-1.3v-3.866c-1.462.878-2.665 1.17-4.224 1.17-1.884 0-3.314-.715-3.736-2.47h9v-1.494c0-4.353-2.307-7.31-6.856-7.31-4.029 0-7.083 3.152-7.083 7.733 0 4.71 3.184 7.537 7.863 7.537zm1.527-9.324h-4.386c.357-1.332 1.17-2.08 2.274-2.08 1.235 0 1.982.845 2.112 2.08z"/><path fill="#1E1E1E" d="M37.276 34.32c.312-1.257.898-2.847 1.49-4.267.931-2.23 1.893-4.533 1.893-6.645 0-1.89-.813-3.79-2.232-5.207-1.263-1.264-3.605-2.77-7.584-2.77-.794 0-1.511.055-2.152.143.192.656.339 1.338.446 2.041a13.446 13.446 0 011.706-.107c3.267 0 5.129 1.175 6.116 2.161 1.03 1.032 1.623 2.394 1.623 3.739 0 1.695-.881 3.805-1.732 5.845-.597 1.429-1.236 3.158-1.59 4.567-.824 3.29-2.147 8.522-5.42 8.522-1.278 0-2.67-.811-4.007-1.896-.654.334-1.368.641-2.14.908 1.877 1.683 3.96 3.064 6.146 3.064 4.9 0 6.526-6.414 7.437-10.097M8.493 20.64c-.852-2.106-1.632-4.798-1.632-7.068 0-3.998.987-7.28 2.71-9.002 1.019-1.018 2.27-1.513 3.823-1.513 3.946 0 11.338 3.606 14.465 10.319a17.407 17.407 0 012.185-.228C26.725 5.14 18.114.98 13.394.98c-6.348 0-8.61 6.504-8.61 12.592 0 2.897 1.02 5.96 1.779 7.839a22.805 22.805 0 011.93-.77M22.4 37.16a12.27 12.27 0 01-4.187.71c-4.835 0-10.121-2.162-13.466-5.507-1.697-1.696-2.67-3.51-2.67-4.973 0-2.155.867-3.652 2.465-4.822a32.081 32.081 0 01-.752-2.002C1.57 22.021 0 24.108 0 27.39c0 2.04 1.165 4.329 3.279 6.442 2.955 2.956 8.43 6.114 14.934 6.114 2.296 0 4.194-.49 5.765-1.177a80.008 80.008 0 01-1.579-1.61M88.893 18.28c-2.568 0-4.714.468-6.667 1.245v12.93h4.341V22.072c.624-.278 1.41-.433 2.22-.433 2.348 0 2.797 1.43 2.797 4.074l.002 6.742h4.34v-7.384c0-4.132-1.378-6.79-7.033-6.79M47.244 32.456h4.326v-18.99h-4.326zM56.543 32.455h5.13l-5.376-7.626 4.931-6.047h-4.927l-4.72 6.2zM64.44 19.524v18.249h4.328v-5.21c.924.168 1.647.208 2.46.208 4.773 0 7.28-2.733 7.28-7.306 0-4.61-2.467-7.185-7.582-7.185-2.29 0-4.684.503-6.486 1.244m6.453 2.068c1.895 0 3.149 1.18 3.149 3.904 0 2.64-.99 4.08-3.326 4.08-.671 0-1.517-.137-1.948-.303v-7.268c.612-.283 1.357-.413 2.125-.413"/><path fill="#1E1E1E" d="M19.736 19.932v-2.145a6.573 6.573 0 00-1.745-.218c-2.504 0-3.735 1.69-3.735 3.401 0 1.628.599 3.18 2.857 6.678.915-.12 1.83-.198 2.727-.222-1.968-3.651-2.448-4.932-2.448-5.865 0-1.088.625-1.642 1.898-1.642.171 0 .311.003.446.013M12.912 23.098c-.184-.49-.318-1.278-.372-1.849-1.993-.065-3.493 1.07-3.493 2.685 0 1.296.661 2.446 3.412 4.777a25.878 25.878 0 012.428-.67c-2.69-2.507-3.106-3.175-3.106-3.924 0-.55.381-.91 1.13-1.019M21.577 19.932v-2.145a6.57 6.57 0 011.746-.218c2.503 0 3.735 1.69 3.735 3.401 0 1.628-.6 3.18-2.858 6.678-.915-.12-1.83-.198-2.726-.222 1.967-3.651 2.448-4.932 2.448-5.865 0-1.088-.625-1.642-1.9-1.642-.17 0-.31.003-.445.013M28.4 23.098c.185-.49.32-1.278.373-1.849 1.994-.065 3.493 1.07 3.493 2.685 0 1.296-.662 2.446-3.412 4.777a25.922 25.922 0 00-2.428-.67c2.691-2.507 3.108-3.175 3.108-3.924 0-.55-.383-.91-1.133-1.019M20.656 31.99c2.017 0 4.07.265 6.21.901l.729-2.398a24.168 24.168 0 00-6.939-1.01c-2.2 0-4.538.293-6.937 1.01l.729 2.398a21.54 21.54 0 016.208-.9M20.656 16.39l-2.221-2.223 2.221-2.221 2.223 2.221z"/><path stroke="#1E1E1E" stroke-width=".5" d="M111.118 5.56l.096 35.246"/></g></svg>
